<svg width="512" height="512" viewBox="0 0 100 100" fill="none" xmlns="http://www.w3.org/2000/svg">
  <defs>
    <radialGradient id="slash-coin-face" cx="31%" cy="22%" r="82%">
      <stop offset="0%" stop-color="#ffffff" stop-opacity="0.96" />
      <stop offset="17%" stop-color="#b7d8ff" stop-opacity="0.92" />
      <stop offset="46%" stop-color="#2f6ceb" />
      <stop offset="74%" stop-color="#635bff" />
      <stop offset="100%" stop-color="#14b8a6" />
    </radialGradient>
    <linearGradient id="slash-coin-rim" x1="18" y1="9" x2="82" y2="91" gradientUnits="userSpaceOnUse">
      <stop offset="0%" stop-color="#ffffff" stop-opacity="0.95" />
      <stop offset="22%" stop-color="#a9d6ff" stop-opacity="0.72" />
      <stop offset="58%" stop-color="#2f6ceb" stop-opacity="0.84" />
      <stop offset="100%" stop-color="#087f74" stop-opacity="0.92" />
    </linearGradient>
    <linearGradient id="slash-cut" x1="66" y1="10" x2="32" y2="90" gradientUnits="userSpaceOnUse">
      <stop offset="0%" stop-color="#ffffff" />
      <stop offset="48%" stop-color="#f7fbff" />
      <stop offset="100%" stop-color="#dff7f3" />
    </linearGradient>
  </defs>
  <circle cx="50" cy="50" r="49" fill="url(#slash-coin-rim)" />
  <circle cx="50" cy="50" r="44" fill="url(#slash-coin-face)" stroke="rgba(255,255,255,0.5)" stroke-width="1.5" />
  <circle cx="50" cy="50" r="36" stroke="rgba(255,255,255,0.22)" stroke-width="2" />
  <path d="M65.6 10.8c3 0 4.8 3.2 3.2 5.8L55.6 37.8h14.8c3.4 0 5.1 4.2 2.7 6.5L35.5 89.4c-2.8 2.7-7.2-0.2-5.8-3.8l13.4-32.8H29.3c-3.3 0-5.1-3.9-2.9-6.3l31.9-34.4c0.9-0.9 2-1.3 3.3-1.3h4Z" fill="rgba(5,11,24,0.24)" transform="translate(3.8 3.2)" />
  <path d="M65.6 10.8c3 0 4.8 3.2 3.2 5.8L55.6 37.8h14.8c3.4 0 5.1 4.2 2.7 6.5L35.5 89.4c-2.8 2.7-7.2-0.2-5.8-3.8l13.4-32.8H29.3c-3.3 0-5.1-3.9-2.9-6.3l31.9-34.4c0.9-0.9 2-1.3 3.3-1.3h4Z" fill="url(#slash-cut)" />
  <path d="M60.8 17.7h3.6L45.7 45.5h14.2L36.1 75.9l9.5-28.6H33.2L60.8 17.7Z" fill="rgba(255,255,255,0.48)" />
  <path d="M28 19.2c7.8-8.2 18.6-11.7 29.5-9.6" stroke="rgba(255,255,255,0.62)" stroke-width="3.2" stroke-linecap="round" />
</svg>
